<?xml version="1.0" encoding="UTF-8" standalone="no"?>
<!DOCTYPE svg PUBLIC "-//W3C//DTD SVG 1.1//EN" "http://www.w3.org/Graphics/SVG/1.1/DTD/svg11.dtd">
<svg xmlns="http://www.w3.org/2000/svg" version="1.1" viewBox="0.00 0.00 256.00 256.00">
<g stroke-width="2.00" fill="none" stroke-linecap="butt">
<path stroke="#f1634f" vector-effect="non-scaling-stroke" d="
  M 137.47 45.76
  Q 115.54 59.48 94.48 74.52"
/>
<path stroke="#f1634f" vector-effect="non-scaling-stroke" d="
  M 88.16 82.38
  L 41.02 112.31"
/>
<path stroke="#ef555f" vector-effect="non-scaling-stroke" d="
  M 87.29 95.87
  L 41.04 126.79"
/>
<path stroke="#ef555f" vector-effect="non-scaling-stroke" d="
  M 151.64 53.90
  Q 125.25 72.99 98.14 90.78"
/>
<path stroke="#e14d72" vector-effect="non-scaling-stroke" d="
  M 60.45 136.39
  Q 50.54 141.51 41.03 148.10"
/>
<path stroke="#e14d72" vector-effect="non-scaling-stroke" d="
  M 167.07 62.84
  C 150.97 73.58 137.90 82.13 124.48 92.85"
/>
<path stroke="#bc528c" vector-effect="non-scaling-stroke" d="
  M 57.59 155.64
  L 41.06 166.72"
/>
<path stroke="#c74f86" vector-effect="non-scaling-stroke" d="
  M 177.06 68.61
  L 140.40 93.75"
/>
<path stroke="#8b5da1" vector-effect="non-scaling-stroke" d="
  M 66.06 168.98
  L 41.24 185.09"
/>
<path stroke="#ae5594" vector-effect="non-scaling-stroke" d="
  M 183.63 72.44
  L 149.75 96.09"
/>
<path stroke="#6064ab" vector-effect="non-scaling-stroke" d="
  M 76.01 178.23
  L 51.03 196.06"
/>
<path stroke="#975b9f" vector-effect="non-scaling-stroke" d="
  M 192.74 77.70
  Q 176.97 89.93 160.22 100.83"
/>
<path stroke="#7960a6" vector-effect="non-scaling-stroke" d="
  M 202.30 83.24
  L 168.49 107.31"
/>
<path stroke="#5a65ac" vector-effect="non-scaling-stroke" d="
  M 213.89 96.37
  L 178.20 121.32"
/>
<path stroke="#3d71ac" vector-effect="non-scaling-stroke" d="
  M 213.96 114.20
  L 188.95 131.52"
/>
<path stroke="#1f86a5" vector-effect="non-scaling-stroke" d="
  M 213.97 135.19
  L 197.35 144.80"
/>
<path stroke="#0f979d" vector-effect="non-scaling-stroke" d="
  M 213.96 155.67
  L 179.07 178.07"
/>
<path stroke="#0ea295" vector-effect="non-scaling-stroke" d="
  M 213.96 169.18
  L 172.71 197.07"
/>
<path stroke="#ae5594" vector-effect="non-scaling-stroke" d="
  M 124.35 113.58
  L 86.28 140.77"
/>
<path stroke="#975b9f" vector-effect="non-scaling-stroke" d="
  M 138.34 114.25
  L 114.42 130.76"
/>
<path stroke="#975b9f" vector-effect="non-scaling-stroke" d="
  M 97.97 139.73
  Q 92.22 144.80 85.58 148.29"
/>
<path stroke="#7f5fa5" vector-effect="non-scaling-stroke" d="
  M 149.32 117.23
  L 86.26 161.78"
/>
<path stroke="#6d62a8" vector-effect="non-scaling-stroke" d="
  M 159.25 123.41
  L 88.86 172.23"
/>
<path stroke="#5a65ac" vector-effect="non-scaling-stroke" d="
  M 163.24 127.94
  C 139.19 143.99 115.46 160.73 90.80 175.78"
/>
<path stroke="#3d71ac" vector-effect="non-scaling-stroke" d="
  M 169.05 143.27
  Q 139.50 162.91 110.69 183.81"
/>
<path stroke="#2481a7" vector-effect="non-scaling-stroke" d="
  M 168.69 161.90
  Q 151.00 171.06 135.92 184.03"
/>
</g>
<path fill="#f26a47" d="
  M 137.47 45.76
  Q 115.54 59.48 94.48 74.52
  C 89.67 73.12 88.19 78.93 88.16 82.38
  L 41.02 112.31
  Q 40.94 106.26 41.02 100.24
  Q 41.08 95.01 42.06 92.52
  Q 43.66 88.44 47.33 86.31
  Q 83.91 65.14 120.45 43.92
  Q 128.83 39.05 137.47 45.76
  Z"
/>
<path fill="#f05b57" d="
  M 151.64 53.90
  Q 125.25 72.99 98.14 90.78
  Q 97.82 85.63 97.43 80.51
  Q 97.14 76.73 94.48 74.52
  Q 115.54 59.48 137.47 45.76
  L 151.64 53.90
  Z"
/>
<path fill="#ee4e66" d="
  M 151.64 53.90
  L 167.07 62.84
  C 150.97 73.58 137.90 82.13 124.48 92.85
  Q 111.09 93.17 99.02 98.56
  A 0.31 0.31 0.0 0 1 98.59 98.30
  L 98.14 90.78
  Q 125.25 72.99 151.64 53.90
  Z"
/>
<path fill="#d44c7e" d="
  M 177.06 68.61
  L 140.40 93.75
  Q 132.55 92.57 124.48 92.85
  C 137.90 82.13 150.97 73.58 167.07 62.84
  L 177.06 68.61
  Z"
/>
<path fill="#b9528e" d="
  M 177.06 68.61
  L 183.63 72.44
  L 149.75 96.09
  L 140.40 93.75
  L 177.06 68.61
  Z"
/>
<path fill="#a3589a" d="
  M 192.74 77.70
  Q 176.97 89.93 160.22 100.83
  L 149.75 96.09
  L 183.63 72.44
  L 192.74 77.70
  Z"
/>
<path fill="#8a5da3" d="
  M 202.30 83.24
  L 168.49 107.31
  L 160.22 100.83
  Q 176.97 89.93 192.74 77.70
  L 202.30 83.24
  Z"
/>
<path fill="#f05b57" d="
  M 88.16 82.38
  L 87.29 95.87
  L 41.04 126.79
  L 41.02 112.31
  L 88.16 82.38
  Z"
/>
<path fill="#6763a9" d="
  M 213.89 96.37
  L 178.20 121.32
  Q 174.62 113.37 168.49 107.31
  L 202.30 83.24
  C 204.71 84.60 207.63 86.00 209.49 87.75
  Q 213.22 91.28 213.89 96.37
  Z"
/>
<path fill="#ee4e66" d="
  M 87.29 95.87
  L 86.64 106.77
  Q 86.61 107.31 86.23 107.69
  Q 76.86 117.19 73.45 130.60
  Q 73.31 131.13 72.77 131.14
  Q 71.00 131.17 69.29 131.10
  C 65.48 130.93 62.48 133.23 60.45 136.39
  Q 50.54 141.51 41.03 148.10
  L 41.04 126.79
  L 87.29 95.87
  Z"
/>
<path fill="#4c67ae" d="
  M 213.96 114.20
  L 188.95 131.52
  L 182.20 131.06
  Q 181.73 131.03 181.58 130.60
  L 178.20 121.32
  L 213.89 96.37
  L 213.96 114.20
  Z"
/>
<path fill="#b9528e" d="
  M 124.35 113.58
  L 86.28 140.77
  C 90.20 121.82 106.40 113.79 124.35 113.58
  Z"
/>
<path fill="#a3589a" d="
  M 138.34 114.25
  L 114.42 130.76
  C 113.06 123.16 106.88 126.63 103.17 129.43
  Q 97.90 133.41 97.97 139.73
  Q 92.22 144.80 85.58 148.29
  L 86.28 140.77
  L 124.35 113.58
  Q 131.30 113.16 138.34 114.25
  Z"
/>
<path fill="#8a5da3" d="
  M 149.32 117.23
  L 86.26 161.78
  L 85.58 148.29
  Q 92.22 144.80 97.97 139.73
  C 97.95 142.38 99.36 145.35 102.31 145.32
  C 105.72 145.28 109.74 141.95 112.00 139.49
  Q 114.83 136.38 114.42 130.76
  L 138.34 114.25
  Q 143.95 115.04 149.32 117.23
  Z"
/>
<path fill="#2d7aa9" d="
  M 213.96 114.20
  L 213.97 135.19
  L 197.35 144.80
  C 196.50 139.22 194.19 133.98 188.95 131.52
  L 213.96 114.20
  Z"
/>
<path fill="#7361a7" d="
  M 159.25 123.41
  L 88.86 172.23
  Q 86.76 167.33 86.26 161.78
  L 149.32 117.23
  Q 154.81 119.43 159.25 123.41
  Z"
/>
<path fill="#6763a9" d="
  M 159.25 123.41
  L 163.24 127.94
  C 139.19 143.99 115.46 160.73 90.80 175.78
  L 88.86 172.23
  L 159.25 123.41
  Z"
/>
<path fill="#4c67ae" d="
  M 163.24 127.94
  Q 168.06 134.85 169.05 143.27
  Q 139.50 162.91 110.69 183.81
  C 103.24 183.41 95.70 182.01 90.80 175.78
  C 115.46 160.73 139.19 143.99 163.24 127.94
  Z"
/>
<path fill="#1091a0" d="
  M 213.97 135.19
  L 213.96 155.67
  L 179.07 178.07
  L 182.18 169.77
  Q 182.35 169.31 182.84 169.36
  Q 192.78 170.35 196.02 160.75
  Q 198.68 152.84 197.35 144.80
  L 213.97 135.19
  Z"
/>
<path fill="#d44c7e" d="
  M 60.45 136.39
  Q 55.93 145.25 57.59 155.64
  L 41.06 166.72
  L 41.03 148.10
  Q 50.54 141.51 60.45 136.39
  Z"
/>
<path fill="#2d7aa9" d="
  M 169.05 143.27
  Q 169.90 152.66 168.69 161.90
  Q 151.00 171.06 135.92 184.03
  L 110.69 183.81
  Q 139.50 162.91 169.05 143.27
  Z"
/>
<path fill="#0e9d99" d="
  M 213.96 155.67
  L 213.96 169.18
  L 172.71 197.07
  L 164.82 193.28
  A 0.25 0.25 0.0 0 1 164.80 192.83
  Q 174.16 187.57 179.07 178.07
  L 213.96 155.67
  Z"
/>
<path fill="#a3589a" d="
  M 57.59 155.64
  C 58.44 161.13 60.80 166.56 66.06 168.98
  L 41.24 185.09
  L 41.06 166.72
  L 57.59 155.64
  Z"
/>
<path fill="#1a87a5" d="
  M 168.69 161.90
  C 167.61 172.77 163.12 181.00 151.42 182.84
  Q 142.71 184.21 135.92 184.03
  Q 151.00 171.06 168.69 161.90
  Z"
/>
<path fill="#7361a7" d="
  M 76.01 178.23
  L 51.03 196.06
  C 46.12 193.31 42.73 191.10 41.24 185.09
  L 66.06 168.98
  L 72.26 169.48
  Q 72.74 169.52 72.90 169.97
  L 76.01 178.23
  Z"
/>
<path fill="#0da791" d="
  M 213.96 169.18
  Q 214.07 179.02 213.98 182.50
  C 213.82 188.87 210.32 192.60 204.77 195.67
  Q 197.71 199.57 190.44 203.91
  C 187.39 205.72 184.80 204.90 181.98 202.92
  Q 177.49 199.76 172.71 197.07
  L 213.96 169.18
  Z"
/>
<path fill="#4c67ae" d="
  M 51.03 196.06
  L 76.01 178.23
  Q 80.83 187.50 89.96 192.76
  Q 90.57 193.11 89.91 193.38
  Q 81.12 197.01 72.49 203.35
  C 70.27 204.98 67.27 205.50 64.89 204.12
  Q 57.97 200.08 51.03 196.06
  Z"
/>
<ellipse fill="#1091a0" cx="127.47" cy="208.12" rx="8.93" ry="5.88"/>
<ellipse fill="#1a87a5" cx="0.00" cy="0.00" transform="translate(107.29,208.11) rotate(0.2)" rx="5.76" ry="3.79"/>
<ellipse fill="#0e9d99" cx="0.00" cy="0.00" transform="translate(147.68,208.11) rotate(-0.4)" rx="5.77" ry="3.78"/>
</svg>
